<svg id="Layer_1" data-name="Layer 1" xmlns="http://www.w3.org/2000/svg" viewBox="0 0 975.95 973.02"><defs><style>.cls-1{fill:#010101;}.cls-2{fill:#fff;}</style></defs><title>logo</title><path class="cls-1" d="M915.79,746.5l5.55-11.8,3-6.43c1-2.39,2.14-5,3.34-7.84s2.5-5.84,3.87-9.07,2.64-6.76,4.08-10.43A481.66,481.66,0,0,0,953,647a496,496,0,0,0,13.27-71.87,504.52,504.52,0,0,0,2-86c-.12-1.9-.15-3.81-.36-5.72s-.35-3.82-.53-5.74q-.51-5.76-1-11.6-.75-5.81-1.51-11.68c-.51-3.91-1-7.86-1.7-11.79s-1.35-7.88-2-11.86c-.31-2-.71-4-1.14-6s-.82-4-1.24-6-.82-4-1.24-6l-.62-3c-.22-1-.49-2-.74-3q-1.49-6-3-12a496.8,496.8,0,0,0-35.81-95.23c-15.7-30.9-34.49-60.89-56.81-88.13l-4.15-5.13c-1.38-1.72-2.74-3.45-4.22-5.08l-8.7-9.92c-2.84-3.36-5.94-6.48-9-9.67l-4.55-4.77-2.27-2.38-1.13-1.19-.13-.13-.3-.29-.61-.59-9.7-9.41c-1.62-1.62-3.21-3-4.8-4.48l-4.77-4.35-4.78-4.34-5-4.24-5-4.22L789,139.18l-2.55-2a492.81,492.81,0,0,0-85.27-55.52l-5.51-2.82-2.75-1.4-2.79-1.31L679,70.91l-11.17-4.79c-3.67-1.66-7.42-3.09-11.13-4.55-7.39-3-14.87-5.56-22.23-8.19-3.7-1.23-7.41-2.36-11.08-3.54L617.9,48.1l-5.51-1.57A497.76,497.76,0,0,0,528,29.94c-3.31-.45-6.61-.66-9.87-1l-9.68-.83-9.49-.5c-3.12-.16-6.21-.38-9.26-.41-6.11-.11-12.07-.4-17.86-.26s-11.43.06-16.88.33a528,528,0,0,0-56.49,5.06c-3.9.57-7.57,1.25-11,1.81s-6.74,1.06-9.74,1.69l-8.37,1.63-3.66.71-3.28.75-12.72,2.86L362,37.43c8.07-2.72,20-6.57,35.46-10.45A462.15,462.15,0,0,1,529.25,14c6.9.35,14,.71,21.1,1.45,3.58.37,7.21.58,10.84,1.07l11,1.38c14.77,2.1,30,4.77,45.47,8.53l5.82,1.36c2,.48,3.88,1,5.82,1.56,3.88,1.07,7.81,2.1,11.73,3.24,7.8,2.42,15.74,4.77,23.6,7.62,8,2.62,15.78,5.83,23.73,9q5.89,2.52,11.83,5.09l3,1.28,2.93,1.38,5.9,2.78a450.91,450.91,0,0,1,46.56,25.37,462.56,462.56,0,0,1,44.57,31.17l2.72,2.1,2.65,2.19,5.31,4.39,5.32,4.4,5.24,4.63,5.24,4.67c1.74,1.55,3.54,3.11,5.11,4.67l9.74,9.36,1.39,1.35,1.21,1.26,2.41,2.5,4.83,5c3.21,3.36,6.5,6.64,9.52,10.18l9.25,10.45c1.57,1.71,3,3.54,4.48,5.34l4.4,5.43c6,7.15,11.37,14.74,16.92,22.2,1.41,1.85,2.7,3.78,4,5.71l3.91,5.77c2.57,3.87,5.28,7.64,7.65,11.63s4.87,7.89,7.3,11.83c1.23,1.95,2.33,4,3.46,6l3.36,6.05c4.63,8,8.59,16.3,12.74,24.46a470.06,470.06,0,0,1,20.77,50.27c3.13,8.41,5.55,17,8.19,25.44,1.3,4.23,2.29,8.53,3.43,12.77s2.28,8.45,3.13,12.72,1.84,8.49,2.75,12.71c.23,1,.47,2.1.67,3.15l.56,3.18,1.11,6.33c.37,2.1.73,4.2,1.1,6.29s.74,4.18,1,6.28c.54,4.19,1.09,8.37,1.62,12.51s.92,8.29,1.29,12.41.73,8.2,1.09,12.27q.3,6.12.6,12.16c.2,4,.39,8,.35,12a478.42,478.42,0,0,1-6.92,89A457.11,457.11,0,0,1,963.14,650c-.91,2.64-1.82,5.23-2.7,7.78s-2,5-2.9,7.41-1.9,4.8-2.82,7.14-1.83,4.61-2.85,6.8q-3,6.58-5.68,12.64l-1.35,3c-.48,1-1,1.92-1.43,2.86-.93,1.88-1.85,3.72-2.74,5.5-1.81,3.56-3.43,7-5.1,10.09l-4.9,8.71c-1.52,2.69-2.92,5.19-4.21,7.46s-2.62,4.25-3.74,6.05Z" transform="translate(-13.05 -13.49)"/><path class="cls-1" d="M153,160.44C-34.79,348.21-33.41,654,156.06,843.5s495.29,190.85,683.06,3.07c-93.89,93.89-246.79,93.2-341.53-1.54s-95.42-247.64-1.54-341.52,93.2-246.79-1.54-341.53S246.87,66.56,153,160.44Z" transform="translate(-13.05 -13.49)"/><path class="cls-2" d="M334.17,397.19v225H319.44L213.23,427.89V622.21H198.49v-225h14.74L319.44,591.5V397.19Z" transform="translate(-13.05 -13.49)"/><path class="cls-1" d="M683.81,509.55l101,112.35H764.85L673.68,520.59l-9.83,11.06v90.56H649.12v-225h14.73V509.55l101-112.36H784.8Z" transform="translate(-13.05 -13.49)"/></svg>