<svg width="64" height="64" viewBox="0 0 64 64" fill="none" xmlns="http://www.w3.org/2000/svg">
<path d="M56.9 32.675C56.9 34.2 55.275 35.575 54.975 37.025C54.675 38.525 55.675 40.4 55.1 41.775C54.525 43.175 52.5 43.8 51.65 45.05C50.8 46.3 51 48.425 49.95 49.475C48.875 50.55 46.775 50.35 45.525 51.175C44.275 52 43.65 54.05 42.25 54.625C40.875 55.2 39 54.2 37.5 54.5C36.05 54.775 34.7 56.425 33.15 56.425C31.625 56.425 30.25 54.8 28.8 54.5C27.3 54.2 25.425 55.2 24.05 54.625C22.65 54.05 22.025 52.025 20.775 51.175C19.525 50.325 17.4 50.525 16.35 49.475C15.275 48.4 15.475 46.3 14.65 45.05C13.825 43.8 11.775 43.175 11.2 41.775C10.625 40.4 11.625 38.525 11.325 37.025C11.05 35.575 9.4 34.225 9.4 32.675C9.4 31.15 11.025 29.775 11.325 28.325C11.625 26.825 10.625 24.95 11.2 23.575C11.775 22.175 13.8 21.55 14.65 20.3C15.5 19.05 15.3 16.925 16.35 15.875C17.425 14.8 19.525 15 20.775 14.175C22.025 13.35 22.65 11.3 24.05 10.725C25.425 10.15 27.3 11.15 28.8 10.85C30.25 10.575 31.6 8.92499 33.15 8.92499C34.675 8.92499 36.05 10.55 37.5 10.85C39 11.15 40.875 10.15 42.25 10.725C43.65 11.3 44.275 13.325 45.525 14.175C46.775 15.025 48.9 14.825 49.95 15.875C51.025 16.95 50.825 19.05 51.65 20.3C52.475 21.55 54.525 22.175 55.1 23.575C55.675 24.95 54.675 26.825 54.975 28.325C55.25 29.8 56.9 31.15 56.9 32.675Z" fill="#F7B728"/>
<path d="M33.15 52.75C44.2371 52.75 53.225 43.7621 53.225 32.675C53.225 21.5879 44.2371 12.6 33.15 12.6C22.0629 12.6 13.075 21.5879 13.075 32.675C13.075 43.7621 22.0629 52.75 33.15 52.75Z" fill="url(#paint0_radial)"/>
<path d="M33.075 50.8C43.0852 50.8 51.2 42.6852 51.2 32.675C51.2 22.6648 43.0852 14.55 33.075 14.55C23.0648 14.55 14.95 22.6648 14.95 32.675C14.95 42.6852 23.0648 50.8 33.075 50.8Z" fill="#EAE4D8"/>
<path d="M34.175 49.475C43.4534 49.475 50.975 41.9534 50.975 32.675C50.975 23.3966 43.4534 15.875 34.175 15.875C24.8966 15.875 17.375 23.3966 17.375 32.675C17.375 41.9534 24.8966 49.475 34.175 49.475Z" fill="url(#paint1_linear)"/>
<path d="M12.575 8.69999C13.25 9.37499 14.125 9.74999 15.025 9.77499C14.125 9.82499 13.25 10.175 12.575 10.85C11.925 11.5 11.575 12.325 11.5 13.175C11.425 12.325 11.075 11.5 10.425 10.85C9.775 10.2 8.95 9.82499 8.075 9.77499C8.925 9.69999 9.75 9.34999 10.4 8.69999C11.1 7.99999 11.475 7.07499 11.475 6.14999C11.5 7.09999 11.875 7.99999 12.575 8.69999Z" fill="url(#paint2_radial)"/>
<path d="M52.975 54.05C53.65 54.725 54.525 55.1 55.425 55.125C54.525 55.175 53.65 55.525 52.975 56.2C52.325 56.85 51.975 57.675 51.9 58.525C51.825 57.675 51.475 56.85 50.825 56.2C50.175 55.55 49.35 55.175 48.475 55.125C49.325 55.05 50.15 54.7 50.8 54.05C51.5 53.35 51.875 52.425 51.875 51.5C51.9 52.425 52.275 53.35 52.975 54.05Z" fill="url(#paint3_radial)"/>
<path d="M50.675 9.85C51.0064 9.85 51.275 9.58137 51.275 9.24999C51.275 8.91862 51.0064 8.64999 50.675 8.64999C50.3436 8.64999 50.075 8.91862 50.075 9.24999C50.075 9.58137 50.3436 9.85 50.675 9.85Z" fill="#D34040"/>
<path d="M51.95 8.575C52.2814 8.575 52.55 8.30637 52.55 7.975C52.55 7.64363 52.2814 7.375 51.95 7.375C51.6186 7.375 51.35 7.64363 51.35 7.975C51.35 8.30637 51.6186 8.575 51.95 8.575Z" fill="#D34040"/>
<path d="M51.95 11.125C52.2814 11.125 52.55 10.8564 52.55 10.525C52.55 10.1936 52.2814 9.92499 51.95 9.92499C51.6186 9.92499 51.35 10.1936 51.35 10.525C51.35 10.8564 51.6186 11.125 51.95 11.125Z" fill="#D34040"/>
<path d="M53.2 9.85C53.5314 9.85 53.8 9.58137 53.8 9.24999C53.8 8.91862 53.5314 8.64999 53.2 8.64999C52.8686 8.64999 52.6 8.91862 52.6 9.24999C52.6 9.58137 52.8686 9.85 53.2 9.85Z" fill="#D34040"/>
<path d="M10.85 55.8C11.1814 55.8 11.45 55.5314 11.45 55.2C11.45 54.8686 11.1814 54.6 10.85 54.6C10.5186 54.6 10.25 54.8686 10.25 55.2C10.25 55.5314 10.5186 55.8 10.85 55.8Z" fill="#D34040"/>
<path d="M12.1 54.525C12.4314 54.525 12.7 54.2564 12.7 53.925C12.7 53.5936 12.4314 53.325 12.1 53.325C11.7686 53.325 11.5 53.5936 11.5 53.925C11.5 54.2564 11.7686 54.525 12.1 54.525Z" fill="#D34040"/>
<path d="M12.1 57.075C12.4314 57.075 12.7 56.8064 12.7 56.475C12.7 56.1436 12.4314 55.875 12.1 55.875C11.7686 55.875 11.5 56.1436 11.5 56.475C11.5 56.8064 11.7686 57.075 12.1 57.075Z" fill="#D34040"/>
<path d="M13.375 55.8C13.7064 55.8 13.975 55.5314 13.975 55.2C13.975 54.8686 13.7064 54.6 13.375 54.6C13.0436 54.6 12.775 54.8686 12.775 55.2C12.775 55.5314 13.0436 55.8 13.375 55.8Z" fill="#D34040"/>
<path d="M37.225 28.525L43.35 29.425C44.025 29.525 44.275 30.325 43.8 30.8L39.425 35.075C39.125 35.35 39 35.775 39.075 36.175L40.175 42.25C40.3 42.9 39.6 43.4 39 43.1L33.5 40.225C33.15 40.025 32.7 40.025 32.35 40.225L26.9 43.075C26.3 43.375 25.6 42.875 25.725 42.225L26.725 36.175C26.8 35.775 26.65 35.375 26.35 35.075L21.875 30.775C21.4 30.3 21.65 29.5 22.3 29.4L28.4 28.55C28.8 28.5 29.15 28.25 29.325 27.875L32 22.375C32.3 21.775 33.15 21.775 33.45 22.375L36.225 27.9C36.475 28.225 36.825 28.475 37.225 28.525Z" fill="url(#paint4_linear)"/>
<path d="M37.375 28.025L43.375 28.875C44.025 28.975 44.3 29.775 43.825 30.225L39.5 34.475C39.225 34.75 39.075 35.15 39.15 35.55L40.2 41.525C40.325 42.175 39.625 42.675 39.05 42.375L33.675 39.575C33.325 39.4 32.9 39.4 32.55 39.575L27.2 42.4C26.625 42.7 25.925 42.225 26.05 41.575L27.05 35.6C27.125 35.2 26.975 34.8 26.7 34.525L22.35 30.3C21.875 29.85 22.125 29.05 22.775 28.95L28.775 28.075C29.175 28.025 29.5 27.775 29.675 27.4L32.35 21.95C32.65 21.35 33.475 21.35 33.775 21.95L36.475 27.375C36.65 27.725 37 27.975 37.375 28.025Z" fill="url(#paint5_linear)"/>
<path d="M30.025 27.25C30.425 27.2 30.75 26.95 30.925 26.575L33.375 21.575C33 21.425 32.55 21.525 32.35 21.95L29.75 27.3L30.025 27.25Z" fill="url(#paint6_linear)"/>
<path d="M40.175 41.5L34.925 38.75C34.575 38.575 34.15 38.575 33.8 38.75L28.45 41.575C27.875 41.875 27.175 41.4 27.3 40.75L28.3 34.775C28.375 34.375 28.225 33.975 27.95 33.7L23.6 29.5C23.425 29.325 23.35 29.1 23.35 28.875L22.775 28.95C22.125 29.05 21.875 29.85 22.35 30.3L26.7 34.525C26.975 34.8 27.125 35.2 27.05 35.6L26.05 41.575C25.95 42.225 26.625 42.725 27.2 42.4L32.55 39.575C32.9 39.4 33.325 39.375 33.675 39.575L39.05 42.375C39.625 42.675 40.3 42.175 40.2 41.525L40.175 41.5Z" fill="url(#paint7_linear)"/>
<path d="M34.25 24.6C34.025 24.7 33.775 24.625 33.65 24.4L33.125 23.325C33.025 23.1 33.1 22.85 33.325 22.725C33.55 22.625 33.8 22.7 33.925 22.925L34.45 24C34.55 24.25 34.475 24.5 34.25 24.6Z" fill="#FFD3C0"/>
<path d="M35.1 26.325C34.875 26.425 34.625 26.35 34.5 26.125C34.4 25.9 34.475 25.65 34.7 25.525C34.925 25.425 35.175 25.5 35.3 25.725C35.4 25.95 35.325 26.225 35.1 26.325Z" fill="#FFD3C0"/>
<defs>
<radialGradient id="paint0_radial" cx="0" cy="0" r="1" gradientUnits="userSpaceOnUse" gradientTransform="translate(33.1418 32.683) scale(58.3637)">
<stop stop-color="#F49D2A"/>
<stop offset="0.2201" stop-color="#F5A729"/>
<stop offset="0.6061" stop-color="#F7B328"/>
<stop offset="1" stop-color="#F7B728"/>
</radialGradient>
<linearGradient id="paint1_linear" x1="-1.85575" y1="32.6829" x2="95.2709" y2="32.6829" gradientUnits="userSpaceOnUse">
<stop stop-color="white"/>
<stop offset="0.0419831" stop-color="#FCFBF9"/>
<stop offset="0.2462" stop-color="#EFEAE1"/>
<stop offset="0.3718" stop-color="#EAE4D8"/>
<stop offset="0.5022" stop-color="#E5D9C3"/>
<stop offset="0.67" stop-color="#E1CEAE"/>
<stop offset="0.8367" stop-color="#DEC8A2"/>
<stop offset="1" stop-color="#DDC69E"/>
</linearGradient>
<radialGradient id="paint2_radial" cx="0" cy="0" r="1" gradientUnits="userSpaceOnUse" gradientTransform="translate(11.5468 9.68294) scale(3.4914)">
<stop stop-color="#F7B728"/>
<stop offset="0.3939" stop-color="#F7B328"/>
<stop offset="0.7799" stop-color="#F5A729"/>
<stop offset="1" stop-color="#F49D2A"/>
</radialGradient>
<radialGradient id="paint3_radial" cx="0" cy="0" r="1" gradientUnits="userSpaceOnUse" gradientTransform="translate(51.946 55.0219) scale(3.4914)">
<stop stop-color="#F7B728"/>
<stop offset="0.3939" stop-color="#F7B328"/>
<stop offset="0.7799" stop-color="#F5A729"/>
<stop offset="1" stop-color="#F49D2A"/>
</radialGradient>
<linearGradient id="paint4_linear" x1="36.7007" y1="32.2086" x2="7.2062" y2="47.344" gradientUnits="userSpaceOnUse">
<stop stop-color="#EAE4D8"/>
<stop offset="0.1332" stop-color="#E7DECC"/>
<stop offset="0.4608" stop-color="#E2D1B3"/>
<stop offset="0.7593" stop-color="#DEC9A3"/>
<stop offset="1" stop-color="#DDC69E"/>
</linearGradient>
<linearGradient id="paint5_linear" x1="37.1558" y1="21.1715" x2="27.6558" y2="44.1715" gradientUnits="userSpaceOnUse">
<stop stop-color="#ED6969"/>
<stop offset="0.1319" stop-color="#E05555"/>
<stop offset="0.2749" stop-color="#D64545"/>
<stop offset="0.3904" stop-color="#D34040"/>
<stop offset="0.5802" stop-color="#CF3F3F"/>
<stop offset="0.7718" stop-color="#C33C3C"/>
<stop offset="0.9636" stop-color="#AF3636"/>
<stop offset="1" stop-color="#AA3535"/>
</linearGradient>
<linearGradient id="paint6_linear" x1="32.0761" y1="23.5622" x2="23.2427" y2="38.0622" gradientUnits="userSpaceOnUse">
<stop stop-color="#D34040"/>
<stop offset="0.3114" stop-color="#CF3F3F"/>
<stop offset="0.6256" stop-color="#C33C3C"/>
<stop offset="0.9403" stop-color="#AF3636"/>
<stop offset="1" stop-color="#AA3535"/>
</linearGradient>
<linearGradient id="paint7_linear" x1="36.7961" y1="26.4376" x2="27.9627" y2="40.9377" gradientUnits="userSpaceOnUse">
<stop stop-color="#D34040"/>
<stop offset="0.3114" stop-color="#CF3F3F"/>
<stop offset="0.6256" stop-color="#C33C3C"/>
<stop offset="0.9403" stop-color="#AF3636"/>
<stop offset="1" stop-color="#AA3535"/>
</linearGradient>
</defs>
</svg>
