<svg width="64" height="64" viewBox="0 0 64 64" fill="none" xmlns="http://www.w3.org/2000/svg">
<path d="M17.425 51.575H10.4C9.425 51.575 8.625 50.775 8.625 49.8C8.625 48.825 9.425 48.025 10.4 48.025H17.425C18.4 48.025 19.2 48.825 19.2 49.8C19.175 50.775 18.4 51.575 17.425 51.575Z" fill="url(#paint0_linear)"/>
<path d="M44.75 16.55H40V23.05H44.75V16.55Z" fill="#8C98C4"/>
<path d="M42.725 19.8C39.625 19.75 36.725 20.475 34.15 21.775C32.15 22.8 29.925 23.275 27.7 23.275H17.575C16.6 23.275 15.775 24.025 15.75 24.975C15.725 25.975 16.525 26.8 17.5 26.8H28.1C27.05 28.15 26.2 29.65 25.575 31.25C24.55 33.9 21.975 35.65 19.125 35.65H5.42503C4.45003 35.65 3.62503 36.4 3.60003 37.35C3.57503 38.35 4.37503 39.175 5.35003 39.175H18.875C21.825 39.175 24.425 41.075 25.425 43.85C25.95 45.35 26.675 46.75 27.575 48.025H23.075C22.1 48.025 21.275 48.775 21.25 49.725C21.225 50.725 22.025 51.55 23 51.55H26.575C28.925 51.55 31.275 52.125 33.3 53.325C35.975 54.875 39.05 55.775 42.375 55.775C52.275 55.775 60.325 47.775 60.375 37.875C60.425 28.1 52.5 19.975 42.725 19.8Z" fill="url(#paint1_linear)"/>
<path d="M42.375 52.3C50.3831 52.3 56.875 45.8081 56.875 37.8C56.875 29.7919 50.3831 23.3 42.375 23.3C34.3669 23.3 27.875 29.7919 27.875 37.8C27.875 45.8081 34.3669 52.3 42.375 52.3Z" fill="#D9DEED"/>
<path d="M43.375 23.3C43.2 23.3 43.05 23.3 42.875 23.325C50.65 23.6 56.875 29.975 56.875 37.8C56.875 45.625 50.65 52.025 42.875 52.275C43.05 52.275 43.2 52.3 43.375 52.3C51.375 52.3 57.875 45.8 57.875 37.8C57.875 29.8 51.4 23.3 43.375 23.3Z" fill="url(#paint2_linear)"/>
<path d="M43.75 50.4C50.7502 50.4 56.425 44.7252 56.425 37.725C56.425 30.7248 50.7502 25.05 43.75 25.05C36.7498 25.05 31.075 30.7248 31.075 37.725C31.075 44.7252 36.7498 50.4 43.75 50.4Z" fill="url(#paint3_linear)"/>
<path d="M10.4 26.825C9.425 26.825 8.625 26.025 8.625 25.05C8.625 24.075 9.425 23.275 10.4 23.275C11.375 23.275 12.175 24.075 12.175 25.05C12.15 26.025 11.375 26.825 10.4 26.825Z" fill="url(#paint4_linear)"/>
<path d="M46.2 16.55H38.575C37.225 16.55 36.125 15.45 36.125 14.125C36.125 12.775 37.225 11.7 38.575 11.7H46.2C47.55 11.7 48.625 12.8 48.625 14.125C48.625 15.45 47.55 16.55 46.2 16.55Z" fill="url(#paint5_linear)"/>
<path d="M42.375 26.825C42.8 26.825 43.125 26.5 43.125 26.075V23.3H41.625V26.075C41.625 26.5 41.975 26.825 42.375 26.825Z" fill="#3065C4"/>
<path d="M41.625 52.3H43.125V49.525C43.125 49.1 42.8 48.775 42.375 48.775C41.95 48.775 41.625 49.1 41.625 49.525V52.3Z" fill="#3065C4"/>
<path d="M27.875 37.05V38.55H30.65C31.075 38.55 31.4 38.225 31.4 37.8C31.4 37.375 31.075 37.05 30.65 37.05H27.875Z" fill="#3065C4"/>
<path d="M53.35 37.8C53.35 38.225 53.675 38.55 54.1 38.55H56.875V37.05H54.1C53.7 37.05 53.35 37.375 53.35 37.8Z" fill="#3065C4"/>
<path d="M48.225 43.95L45.025 39.95C45.35 39.425 45.55 38.8 45.55 38.125C45.55 36.175 43.95 34.575 42 34.575C40.05 34.575 38.45 36.175 38.45 38.125C38.45 40.075 40.05 41.675 42 41.675C42.35 41.675 42.7 41.625 43 41.525L46.225 45.55C46.65 46.075 47.425 46.175 47.975 45.75L48.05 45.7C48.575 45.275 48.65 44.5 48.225 43.95Z" fill="url(#paint6_linear)"/>
<path d="M42.375 37.8C42.05 38.05 42 38.525 42.25 38.85L47.425 45.3C47.675 45.625 48.15 45.675 48.475 45.425C48.8 45.175 48.85 44.7 48.6 44.375L43.425 37.925C43.175 37.575 42.7 37.525 42.375 37.8Z" fill="#3065C4"/>
<path d="M42.375 40.675C43.9628 40.675 45.25 39.3878 45.25 37.8C45.25 36.2122 43.9628 34.925 42.375 34.925C40.7872 34.925 39.5 36.2122 39.5 37.8C39.5 39.3878 40.7872 40.675 42.375 40.675Z" fill="#D34040"/>
<path d="M44.75 17.175L40 18.1V16.55H44.75V17.175Z" fill="url(#paint7_linear)"/>
<path d="M26.775 11.825C26.775 15.85 23.5 19.125 19.475 19.125C15.425 19.125 12.175 15.85 12.175 11.825C12.175 7.8 15.425 4.5 19.475 4.5C21.8 4.5 23.875 5.6 25.225 7.3C25.1 7.375 24.975 7.45 24.85 7.575L18.225 15.025L15.975 12.5C15.525 11.975 14.725 11.95 14.2 12.4C13.675 12.85 13.625 13.65 14.1 14.175L16.625 17C17.025 17.45 17.6 17.7 18.225 17.7C18.825 17.7 19.4 17.45 19.825 17L26.45 9.575C26.65 10.275 26.775 11.025 26.775 11.825Z" fill="url(#paint8_radial)"/>
<path d="M26.425 9.57499L19.8 17C19.4 17.45 18.825 17.7 18.2 17.7C17.6 17.7 17 17.45 16.6 17L14.1 14.175C13.65 13.65 13.675 12.875 14.2 12.4C14.725 11.95 15.5 11.975 15.975 12.5L18.225 15.025L24.85 7.57499C24.95 7.44999 25.075 7.34999 25.225 7.29999C25.75 7.97499 26.15 8.72499 26.425 9.57499Z" fill="url(#paint9_linear)"/>
<path d="M18.575 16.95C17.975 16.95 17.4 16.7 16.975 16.225L14.45 13.4C14 12.875 14.025 12.1 14.55 11.625C15.075 11.175 15.85 11.2 16.325 11.725L18.575 14.25L25.2 6.8C25.65 6.275 26.45 6.25 26.975 6.7C27.5 7.15 27.525 7.95 27.075 8.475L20.175 16.225C19.75 16.7 19.175 16.95 18.575 16.95Z" fill="#3065C4"/>
<defs>
<linearGradient id="paint0_linear" x1="1.68092" y1="55.792" x2="59.1809" y2="27.667" gradientUnits="userSpaceOnUse">
<stop stop-color="#8C98C4"/>
<stop offset="0.0107294" stop-color="#8E9AC5"/>
<stop offset="0.1529" stop-color="#A5B0D2"/>
<stop offset="0.3051" stop-color="#B6BFDB"/>
<stop offset="0.4729" stop-color="#C0C8E0"/>
<stop offset="0.6865" stop-color="#C3CBE2"/>
<stop offset="1" stop-color="#D9DEED"/>
</linearGradient>
<linearGradient id="paint1_linear" x1="1.09483" y1="54.5937" x2="58.5948" y2="26.4687" gradientUnits="userSpaceOnUse">
<stop stop-color="#8C98C4"/>
<stop offset="0.0107294" stop-color="#8E9AC5"/>
<stop offset="0.1529" stop-color="#A5B0D2"/>
<stop offset="0.3051" stop-color="#B6BFDB"/>
<stop offset="0.4729" stop-color="#C0C8E0"/>
<stop offset="0.6865" stop-color="#C3CBE2"/>
<stop offset="1" stop-color="#D9DEED"/>
</linearGradient>
<linearGradient id="paint2_linear" x1="42.8861" y1="37.7971" x2="57.8861" y2="37.7971" gradientUnits="userSpaceOnUse">
<stop stop-color="#C3CBE2"/>
<stop offset="0.2686" stop-color="#BFC7E0"/>
<stop offset="0.5396" stop-color="#B3BCD9"/>
<stop offset="0.8109" stop-color="#9FA9CE"/>
<stop offset="1" stop-color="#8C98C4"/>
</linearGradient>
<linearGradient id="paint3_linear" x1="31.0867" y1="37.7346" x2="56.4355" y2="37.7346" gradientUnits="userSpaceOnUse">
<stop stop-color="#D9DEED"/>
<stop offset="0.125" stop-color="#DEE2F0"/>
<stop offset="0.5097" stop-color="#E8EBF5"/>
<stop offset="1" stop-color="#EBEEF7"/>
</linearGradient>
<linearGradient id="paint4_linear" x1="-8.76573" y1="34.4344" x2="48.7343" y2="6.30938" gradientUnits="userSpaceOnUse">
<stop stop-color="#8C98C4"/>
<stop offset="0.0107294" stop-color="#8E9AC5"/>
<stop offset="0.1529" stop-color="#A5B0D2"/>
<stop offset="0.3051" stop-color="#B6BFDB"/>
<stop offset="0.4729" stop-color="#C0C8E0"/>
<stop offset="0.6865" stop-color="#C3CBE2"/>
<stop offset="1" stop-color="#D9DEED"/>
</linearGradient>
<linearGradient id="paint5_linear" x1="45.1301" y1="12.892" x2="32.5468" y2="18.4754" gradientUnits="userSpaceOnUse">
<stop stop-color="#C3CBE2"/>
<stop offset="0.2686" stop-color="#BFC7E0"/>
<stop offset="0.5396" stop-color="#B3BCD9"/>
<stop offset="0.8109" stop-color="#9FA9CE"/>
<stop offset="1" stop-color="#8C98C4"/>
</linearGradient>
<linearGradient id="paint6_linear" x1="42.9195" y1="41.5014" x2="47.174" y2="37.2469" gradientUnits="userSpaceOnUse">
<stop stop-color="#D9DEED"/>
<stop offset="0.125" stop-color="#DEE2F0"/>
<stop offset="0.5097" stop-color="#E8EBF5"/>
<stop offset="1" stop-color="#EBEEF7"/>
</linearGradient>
<linearGradient id="paint7_linear" x1="41.9269" y1="16.3474" x2="43.3019" y2="19.2849" gradientUnits="userSpaceOnUse">
<stop stop-color="#6375AA"/>
<stop offset="0.1248" stop-color="#6E7FB1"/>
<stop offset="0.3739" stop-color="#7F8DBC"/>
<stop offset="0.6493" stop-color="#8995C2"/>
<stop offset="1" stop-color="#8C98C4"/>
</linearGradient>
<radialGradient id="paint8_radial" cx="0" cy="0" r="1" gradientUnits="userSpaceOnUse" gradientTransform="translate(21.5847 5.75047) scale(12.6758)">
<stop stop-color="#D9DEED"/>
<stop offset="0.6096" stop-color="#D7DCEC"/>
<stop offset="0.829" stop-color="#D0D7E9"/>
<stop offset="0.985" stop-color="#C5CCE3"/>
<stop offset="1" stop-color="#C3CBE2"/>
</radialGradient>
<linearGradient id="paint9_linear" x1="26.4264" y1="12.5062" x2="13.7815" y2="12.5062" gradientUnits="userSpaceOnUse">
<stop stop-color="#C3CBE2"/>
<stop offset="0.2686" stop-color="#BFC7E0"/>
<stop offset="0.5396" stop-color="#B3BCD9"/>
<stop offset="0.8109" stop-color="#9FA9CE"/>
<stop offset="1" stop-color="#8C98C4"/>
</linearGradient>
</defs>
</svg>
